<?xml version="1.0" encoding="UTF-8"?>
<svg id="Capa_1" data-name="Capa 1" xmlns="http://www.w3.org/2000/svg" viewBox="0 0 421.93 131.69">
  <defs>
    <style>
      .cls-1 {
        fill: #fff;
      }

      .cls-2 {
        fill: #2b2b2b;
      }

      .cls-3 {
        fill: #191919;
      }

      .cls-4 {
        fill: #231f20;
      }
    </style>
  </defs>
  <g id="_e85984ff" data-name="#e85984ff">
    <path class="cls-2" d="m.13,14.97C7.81,9.98,15.5,5.01,23.16,0c-.01,35.43.03,70.87-.02,106.31-3.01,2-6.07,3.93-9.08,5.94-3.88,2.41-7.7,4.91-11.49,7.45-.75.52-1.55.95-2.39,1.3-.04-35.34.05-70.69-.05-106.03Z"/>
  </g>
  <g id="_e51050ff" data-name="#e51050ff">
    <path d="m23.16,0c33.88,0,67.76,0,101.64,0,3.54.05,6.94,2.83,7.23,6.44.14,6.35-.09,12.71.11,19.06.08,24.3.01,48.6.03,72.9-.05,2.66.13,5.32-.09,7.98-11.35.11-22.7.01-34.05.05-23.62,0-47.23,0-70.85,0-1.35.02-2.7.03-4.04-.12.04-35.43,0-70.87.02-106.31m46.54,22.1c-2.25,6.51-4.05,13.16-6.14,19.72-3.91,12.79-7.82,25.58-11.73,38.38-.36,1.02-.67,2.06-.84,3.13,3.7.06,7.41.09,11.11-.01,1.42-4.92,2.86-9.83,4.23-14.77.14-.44.31-.86.48-1.27,7.02.02,14.04-.09,21.05.06,1.69,5.34,3.29,10.71,5.08,16.02,3.78.02,7.57.05,11.35-.02-2.24-7.52-4.8-14.95-7.13-22.45-4.21-12.91-8.26-25.87-12.49-38.77-4.98-.12-9.98-.1-14.97-.01Z"/>
    <path d="m77.04,30.06c.72,1.73,1.01,3.6,1.59,5.37,2.14,7.62,4.4,15.21,6.46,22.85-5.26.07-10.53.08-15.79,0,2.43-9.45,5.26-18.79,7.74-28.22Z"/>
  </g>
  <g id="_231f20ff" data-name="#231f20ff">
    <path class="cls-4" d="m.04,20.04c.04-1.69-.12-3.38.09-5.07.1,35.34.01,70.69.05,106.03v.36c-.29-1.08-.13-2.19-.14-3.28,0-32.68,0-65.36,0-98.04Z"/>
    <path class="cls-4" d="m320.15,36.13c3.23-2.48,7.4-3.62,11.45-3.47,4.65-.13,9.34,1.54,12.86,4.58-1.23,1.48-2.42,3.03-3.88,4.3-2.4-1.52-5.02-2.89-7.92-2.99-3.23-.36-6.79.81-8.67,3.57-1.23,1.93-1.97,4.22-1.94,6.52.02,4.18.03,8.37,0,12.55-.04,2.45.81,4.92,2.36,6.82,1.89,2.05,4.8,2.85,7.52,2.6,3.24.01,6.25-1.35,8.97-2.98,1.19,1.42,2.25,2.97,3.2,4.57-3.31,2.45-7.28,4.06-11.41,4.31-4.69.34-9.78-.57-13.4-3.75-3.3-2.85-4.84-7.3-4.87-11.58,0-4.06,0-8.11,0-12.17.02-4.82,1.87-9.85,5.73-12.89Z"/>
    <path class="cls-4" d="m189.59,33.62c3.2-.25,6.41-.06,9.61-.11.55-.07,1.11.18,1.17.79,2.89,8.92,5.72,17.85,8.62,26.76,1.47,4.95,3.31,9.78,4.62,14.77-2.62.04-5.26.11-7.88-.05-1.17-3.63-2.32-7.27-3.46-10.91-2.45-.24-4.92-.05-7.37-.11-2.46.05-4.92-.13-7.37.11-.96,3.65-2.06,7.27-3.08,10.9-2.59.16-5.18.1-7.78.04,4.25-14.08,8.57-28.14,12.91-42.19m5.1,5.73c-1.84,6.41-3.56,12.85-5.38,19.27,3.64-.13,7.27-.02,10.91-.06-.22-1.62-.78-3.16-1.21-4.72-1.14-4.09-2.31-8.18-3.44-12.27-.21-.77-.37-1.58-.88-2.22Z"/>
    <path class="cls-4" d="m359.55,33.61c3.44-.21,6.9-.11,10.34-.05,1.39,3.52,2.38,7.18,3.59,10.77,3.22,10.02,6.43,20.04,9.67,30.05.14.48.25.96.38,1.44-2.63.06-5.26.09-7.88-.01-1.17-3.63-2.35-7.26-3.4-10.93-4.9-.19-9.84-.18-14.74,0-1.01,3.64-2.11,7.26-3.1,10.91-2.59.15-5.18.1-7.77.02,3.58-11.98,7.3-23.91,10.92-35.87.7-2.1,1.22-4.25,1.99-6.33m5.11,5.74c-1.86,6.39-3.54,12.83-5.43,19.22,3.65-.02,7.3,0,10.95-.01-.22-1.62-.77-3.16-1.21-4.72-1.13-4-2.29-7.99-3.37-12-.25-.85-.4-1.77-.95-2.49Z"/>
    <path class="cls-4" d="m390.94,33.58c4.67-.18,9.34-.01,14.02-.08,4.41-.09,9.11,1.1,12.34,4.25,2.97,3.08,4.67,7.35,4.61,11.63-.02,3.1-.02,6.2,0,9.3.21,4.75-1.76,9.55-5.18,12.84-3.73,3.43-9,4.49-13.92,4.45-3.95-.07-7.91.1-11.86-.09-.18-11.22-.03-22.45-.08-33.67.04-2.88-.1-5.77.07-8.64m7.52,5.81c-.17,5.12-.02,10.24-.07,15.36.05,5.02-.11,10.05.08,15.07,1.91.14,3.84.07,5.75.1,3.59,0,7.32-1.89,8.8-5.27,1.67-3.17,1.19-6.82,1.22-10.25-.07-3.43.46-7.09-1.21-10.26-1.29-2.99-4.54-4.77-7.71-4.78-2.29,0-4.57-.02-6.86.04Z"/>
    <path class="cls-4" d="m258.36,35.8c2.23-.26,4.48-.15,6.72-.06.19,2.59,0,5.2.08,7.8,2.31.1,4.64-.18,6.94.13,0,1.86,0,3.72-.01,5.59-2.31.09-4.63-.17-6.93.13,0,5.96,0,11.93,0,17.89-.07,1.27.51,2.63,1.74,3.15,1.68.72,3.54.2,5.3.18.39,1.72.7,3.47.79,5.24-3.62.98-7.7,1.37-11.17-.31-2.38-1.07-3.94-3.58-4.13-6.14-.1-6.69.1-13.39-.09-20.07-1.64-.14-3.29-.04-4.93-.07.01-1.85.01-3.7,0-5.55,1.69-.31,3.4-.11,5.1-.16.4-2.57.35-5.17.62-7.74Z"/>
    <path class="cls-4" d="m289.53,42.79c3.5-.34,7.14-.11,10.33,1.48,3.34,1.51,5.99,4.49,7,8.03,1.03,3.21.91,6.62.86,9.95-.1,3.86-1.52,7.75-4.26,10.51-2.56,2.34-5.94,3.89-9.44,3.95-2.24.01-4.55.16-6.72-.56-2.89-.91-5.68-2.6-7.34-5.2-1.35-2-2.18-4.33-2.55-6.7-.2-1.97-.03-3.95-.09-5.92-.13-3.76.83-7.68,3.18-10.67,2.17-2.81,5.61-4.33,9.03-4.87m.33,6.04c-2,.65-3.55,2.33-4.26,4.28-1.19,2.66-.66,5.63-.78,8.44-.04,3.02.81,6.47,3.43,8.27,1.93,1.27,4.45,1.42,6.63.78,2.13-.59,3.7-2.43,4.45-4.45,1.11-2.71.71-5.69.78-8.54.06-2.72-.79-5.63-2.86-7.5-2.01-1.72-4.92-1.93-7.39-1.28Z"/>
    <path class="cls-4" d="m218.85,43.62c2.5-.13,5.02-.13,7.52,0,.07,7.78,0,15.55.03,23.33-.08,1.76,1.2,3.43,2.9,3.85,2.36.58,4.87-.3,6.73-1.77.86-.76,2.04-1.57,2.06-2.83.06-7.52-.11-15.05.08-22.57,2.47-.1,4.97-.21,7.44.06-.01,10.7-.02,21.41,0,32.11-2.11.12-4.23.12-6.34.01-.22-1.05-.38-2.11-.52-3.18-1.22.73-2.2,1.81-3.47,2.46-3.52,1.93-8.03,2.16-11.6.26-3.1-1.56-4.98-5.01-4.91-8.43.05-7.76-.1-15.53.08-23.29Z"/>
  </g>
  <g id="_ffffffff" data-name="#ffffffff">
    <path class="cls-1" d="m69.7,22.1c4.98-.08,9.98-.11,14.97.01,4.23,12.9,8.29,25.86,12.49,38.77,2.33,7.5,4.89,14.92,7.13,22.45-3.78.07-7.57.04-11.35.02-1.79-5.31-3.39-10.68-5.08-16.02-7.02-.15-14.04-.04-21.05-.06-.17.42-.35.84-.48,1.27-1.37,4.93-2.81,9.85-4.23,14.77-3.7.1-7.41.07-11.11.01.18-1.07.48-2.11.84-3.13,3.91-12.79,7.82-25.58,11.73-38.38,2.09-6.56,3.89-13.21,6.14-19.72m7.34,7.95c-2.48,9.44-5.32,18.78-7.74,28.22,5.26.08,10.53.07,15.79,0-2.05-7.65-4.32-15.24-6.46-22.85-.58-1.77-.87-3.64-1.59-5.37Z"/>
  </g>
  <g id="_770829ff" data-name="#770829ff">
    <path class="cls-3" d="m132.14,25.5c3.02-.37,6.09-.18,9.13-.13.15,8,.02,16,.06,24,0,25.52,0,51.05,0,76.57-.02,1.9.07,3.8-.06,5.7-39.37.06-78.74,0-118.11.03-2.34,0-4.9-.22-6.72-1.86-1.36-1.28-2.42-3.04-2.37-4.96-.01-4.21,0-8.41,0-12.62,3.01-2.01,6.07-3.93,9.08-5.94,1.34.15,2.69.14,4.04.12,23.62,0,47.23,0,70.85,0,11.35-.03,22.7.07,34.05-.05.21-2.66.04-5.32.09-7.98-.02-24.3.04-48.6-.03-72.9Z"/>
  </g>
</svg>