<?xml version="1.0" encoding="UTF-8"?>
<svg id="Capa_1" data-name="Capa 1" xmlns="http://www.w3.org/2000/svg" viewBox="0 0 193.4 31.4">
  <path d="m30.39,9.51h-6.04l-.91,6.34h8.27c0,7.65-5.42,14.04-12.64,15.52l3.12-21.86h0s-20.87,0-20.87,0C3.77,3.91,9.35,0,15.85,0s12.09,3.91,14.53,9.51Zm14.48,2.95h-5.24v-2.95h14.21v2.95h-5.27v9.73h-3.7v-9.73Zm22.66-2.95l3.03,8.72,2.77-8.72h3.71l-4.62,12.68h-3.68l-2.95-8.82-2.97,8.82h-3.64l-4.64-12.68h3.79l2.77,8.72,3.03-8.72h3.41,0Zm10.79,0h3.7v12.68h-3.7v-12.68h0Zm10.21,0l7.52,7.75v-7.76s3.57,0,3.57,0v12.69h-3.24l-8.19-8.34v8.33h-3.57v-12.68h3.91Zm17.76,0l4.77,6.09,4.8-6.09h3.93v12.68h-3.68v-8.1l-5.06,6.2h-.18l-5.06-6.2v8.1h-3.57v-12.68h4.04Zm15.42,6.34c0-4.3,3.24-6.76,8.26-6.76s8.28,2.46,8.28,6.76-3.26,6.76-8.28,6.76-8.26-2.47-8.26-6.76Zm3.75,0c0,2.39,1.72,3.75,4.51,3.75s4.51-1.36,4.51-3.75-1.72-3.75-4.51-3.75-4.51,1.36-4.51,3.75Zm18.61-3.39h-5.24v-2.95h14.21v2.95h-5.27v9.73h-3.7v-9.73Zm10.26-2.95h3.7v12.68h-3.7v-12.68Zm5.6,6.34c0-4.3,3.24-6.76,8.26-6.76s8.28,2.46,8.28,6.76-3.26,6.76-8.28,6.76-8.26-2.47-8.26-6.76Zm3.75,0c0,2.39,1.72,3.75,4.51,3.75s4.51-1.36,4.51-3.75-1.72-3.75-4.51-3.75-4.51,1.36-4.51,3.75Zm26.14,1.41v-7.76h3.57v12.69h-3.24l-8.19-8.34v8.33h-3.57v-12.68h3.91l7.52,7.75ZM14.95,15.85l-2.22,15.54C5.47,29.94,0,23.54,0,15.85h14.95Z"/>
</svg>