<?xml version="1.0" encoding="utf-8"?>
<!-- Generator: Adobe Illustrator 27.3.1, SVG Export Plug-In . SVG Version: 6.00 Build 0)  -->
<svg version="1.1" id="Capa_1" xmlns="http://www.w3.org/2000/svg" xmlns:xlink="http://www.w3.org/1999/xlink" x="0px" y="0px"
	 viewBox="0 0 100 50" style="enable-background:new 0 0 100 50;" xml:space="preserve">
<g>
	<g>
		<path d="M34.35,48.64c-5.12,0-9.07-1.43-11.85-4.29c-2.78-2.86-4.17-6.86-4.17-12l6.96,2.18c0,3.28,0.68,3.66,2.31,5.48
			c1.63,1.82,3.93,2.73,6.91,2.73c2.89,0,5.12-0.9,6.68-2.71c1.56-1.81,2.35-4.36,2.35-7.67v-31h6.83v31
			c0,5.17-1.41,9.17-4.24,12.02C43.31,47.22,39.39,48.64,34.35,48.64z M33.01,7.6l-1.42-6.24h15.3V7.6H33.01z"/>
	</g>
	<path d="M43.59,45.79V1.36h6.83v26.53L43.59,45.79z M44.97,27.89v-6.24h27.62v6.24H44.97z M66.97,47.99V1.36h6.83v44.43
		L66.97,47.99z"/>
</g>
</svg>
